<!DOCTYPE svg PUBLIC "-//W3C//DTD SVG 1.1//EN" "http://www.w3.org/Graphics/SVG/1.1/DTD/svg11.dtd" [
	<!ENTITY ns_flows "http://ns.adobe.com/Flows/1.0/">
]><svg xmlns="http://www.w3.org/2000/svg" width="16" height="16" viewBox="0 0 16 16" preserveAspectRatio="xMinYMid meet" overflow="visible"><path d="M8 0C3.6 0 0 3.6 0 8s3.6 8 8 8 8-3.6 8-8-3.6-8-8-8zm0 15c-3.9 0-7-3.1-7-7s3.1-7 7-7 7 3.1 7 7-3.1 7-7 7zm.2-5.4l-2.7 2.7C4.9 12 4.4 11.5 4 11l2.8-2.8-3-3c.4-.6.9-1 1.4-1.4l3 3L11 4c.5.4 1 .9 1.3 1.5L9.6 8.2l2.5 2.5c-.4.6-.9 1-1.4 1.4L8.2 9.6z" fill="#989898"/></svg>